# xmcd
#
# Track frame offsets:
#	150
#	60470
#	80385
#	109875
#	128825
#	159750
#
# Disc length: 2370 seconds
#
# Revision: 0
# Processed by: cddbd v1.5.2PL0 Copyright (c) Steve Scherf et al.
# Submitted via: EasyCDDAExtractor 9.0.0.1
#
DISCID=3f094006
DTITLE=Ozzy Osbourne - Centrum Worcester 24-06-89 Disc 2
DYEAR=1989
DGENRE=Hard Rock
TTITLE0=Tattooed Dancer
TTITLE1=Miracle Man
TTITLE2=Suicide Solution
TTITLE3=Iron Man
TTITLE4=Crazy Train
TTITLE5=Paranoid
EXTD=
EXTT0=
EXTT1=
EXTT2=
EXTT3=
EXTT4=
EXTT5=
PLAYORDER=
